<svg width="720" height="660" viewBox="0 0 720 660" fill="none" xmlns="http://www.w3.org/2000/svg">
<rect width="720" height="660" fill="#005BAA"/>
<g clip-path="url(#clip0_2808_3509)">
<path d="M529.402 372.884H196.885V531.052H529.402V372.884Z" fill="#E6E6E6"/>
<path d="M519.894 386.447H206.393V518.412H519.894V386.447Z" fill="white"/>
<path d="M467.466 411.01H459.348V419.148H467.466V411.01Z" fill="#F7D800"/>
<path d="M250.931 411.01H242.813V419.148H250.931V411.01Z" fill="#2484D8"/>
<path d="M269.639 434.32H242.578V461.446H269.639V434.32Z" fill="#E6E6E6"/>
<path d="M529 364H198C197.448 364 197 364.448 197 365V377C197 377.552 197.448 378 198 378H529C529.552 378 530 377.552 530 377V365C530 364.448 529.552 364 529 364Z" fill="#3F3D56"/>
<path d="M207.241 376.592C208.687 376.592 209.859 375.417 209.859 373.967C209.859 372.518 208.687 371.343 207.241 371.343C205.795 371.343 204.622 372.518 204.622 373.967C204.622 375.417 205.795 376.592 207.241 376.592Z" fill="white"/>
<path d="M217.179 376.592C218.625 376.592 219.797 375.417 219.797 373.967C219.797 372.518 218.625 371.343 217.179 371.343C215.733 371.343 214.56 372.518 214.56 373.967C214.56 375.417 215.733 376.592 217.179 376.592Z" fill="white"/>
<path d="M227.117 376.592C228.563 376.592 229.736 375.417 229.736 373.967C229.736 372.518 228.563 371.343 227.117 371.343C225.671 371.343 224.499 372.518 224.499 373.967C224.499 375.417 225.671 376.592 227.117 376.592Z" fill="white"/>
<path d="M580 531.052H140V532H580V531.052Z" fill="#E6E6E6"/>
<path d="M364.003 437.033H297.704V440.848H364.003V437.033Z" fill="#E6E6E6"/>
<path d="M400.084 450.949H297.704V454.764H400.084V450.949Z" fill="#2484D8"/>
<path d="M381.141 464.059H297.704V467.875H381.141V464.059Z" fill="#E6E6E6"/>
<path d="M346.413 477.121H297.704V480.937H346.413V477.121Z" fill="#E6E6E6"/>
<path d="M371.219 490.182H297.704V493.998H371.219V490.182Z" fill="#E6E6E6"/>
<path d="M481.448 411.01H473.33V419.148H481.448V411.01Z" fill="#DD6060"/>
<path d="M495.429 411.01H487.311V419.148H495.429V411.01Z" fill="#51CB49"/>
<path opacity="0.997" d="M478.942 480.936C488.047 480.936 495.429 473.537 495.429 464.409C495.429 455.282 488.047 447.883 478.942 447.883C469.837 447.883 462.456 455.282 462.456 464.409C462.456 473.537 469.837 480.936 478.942 480.936Z" fill="#2484D8"/>
<path d="M229.082 276.75C239.333 276.75 247.643 268.42 247.643 258.144C247.643 247.868 239.333 239.538 229.082 239.538C218.831 239.538 210.521 247.868 210.521 258.144C210.521 268.42 218.831 276.75 229.082 276.75Z" fill="#2F2E41"/>
<path d="M182.891 417.338H174.762L170.896 385.916H182.89L182.891 417.338Z" fill="#FEB8B8"/>
<path d="M168.959 415.01H184.632V424.903H159.091C159.091 422.279 160.13 419.763 161.981 417.908C163.832 416.053 166.342 415.01 168.959 415.01Z" fill="#2F2E41"/>
<path d="M170.205 412.792L162.451 410.352L168.147 379.21L179.591 382.81L170.205 412.792Z" fill="#FEB8B8"/>
<path d="M157.603 406.39L172.557 411.095L169.603 420.533L145.233 412.867C145.621 411.627 146.248 410.477 147.08 409.48C147.912 408.484 148.931 407.662 150.08 407.06C151.229 406.459 152.484 406.09 153.775 405.975C155.066 405.86 156.367 406.001 157.603 406.39L157.603 406.39Z" fill="#2F2E41"/>
<path d="M172.849 400.253C172.494 400.253 172.141 400.188 171.809 400.063L165.828 397.816C165.157 397.561 164.599 397.074 164.257 396.441C163.915 395.809 163.81 395.074 163.963 394.371C165.468 387.587 170.598 364.488 173.407 352.099C176.739 337.404 225.34 334.673 227.407 334.564L227.578 334.555L233.045 341.439C235.02 347.804 234.394 352.769 231.184 356.197C221.815 366.195 193.845 359.991 190.509 359.206L175.643 398.327C175.427 398.894 175.044 399.381 174.545 399.725C174.046 400.069 173.455 400.253 172.85 400.253H172.849Z" fill="#2F2E41"/>
<path d="M181.466 404.905C181.111 404.904 180.759 404.84 180.427 404.715L174.448 402.468C173.776 402.213 173.219 401.725 172.876 401.093C172.534 400.46 172.429 399.726 172.582 399.023C174.088 392.238 179.218 369.14 182.027 356.75C185.358 342.055 233.96 339.324 236.027 339.215L236.197 339.206L241.662 346.092C243.638 352.458 243.012 357.423 239.801 360.85C230.433 370.846 202.462 364.644 199.127 363.859L184.259 402.979C184.042 403.545 183.659 404.032 183.161 404.376C182.662 404.72 182.071 404.904 181.466 404.904L181.466 404.905Z" fill="#2F2E41"/>
<path d="M164.168 309.201C164.388 309.496 164.584 309.807 164.755 310.133L197.449 313.585L202.156 307.117L212.823 312.96L203.579 328.657L163.482 318.409C162.47 319.397 161.183 320.054 159.79 320.291C158.397 320.528 156.965 320.334 155.684 319.736C154.404 319.137 153.335 318.162 152.621 316.94C151.907 315.718 151.581 314.307 151.687 312.894C151.792 311.482 152.324 310.135 153.211 309.033C154.099 307.931 155.3 307.126 156.655 306.725C158.01 306.324 159.455 306.347 160.797 306.789C162.139 307.231 163.316 308.072 164.169 309.201L164.168 309.201Z" fill="#FEB8B8"/>
<path d="M240.145 348.728C239.672 348.727 239.206 348.613 238.786 348.397C232.248 345.064 219.518 339.293 207.713 338.086C207.309 338.046 206.918 337.922 206.565 337.722C206.211 337.522 205.903 337.25 205.661 336.923C205.414 336.593 205.238 336.216 205.143 335.814C205.047 335.413 205.036 334.996 205.109 334.59C206.174 328.679 208.617 313.627 208.303 301.564C208.21 297.855 209.379 294.224 211.617 291.269C213.856 288.314 217.031 286.211 220.62 285.305C222.78 284.733 224.975 284.3 227.189 284.006C229.736 283.683 232.323 283.962 234.742 284.821C237.162 285.68 239.347 287.095 241.123 288.953C242.899 290.811 244.216 293.06 244.969 295.52C245.721 297.98 245.889 300.582 245.458 303.119C243.353 315.62 241.231 333.081 243.075 345.27C243.16 345.816 243.092 346.375 242.879 346.885C242.667 347.395 242.317 347.837 241.87 348.16C241.369 348.527 240.765 348.726 240.145 348.728Z" fill="#F6F6F6"/>
<path d="M208.908 316.931C208.5 316.93 208.097 316.846 207.724 316.683L199.207 312.987C198.481 312.672 197.91 312.08 197.619 311.343C197.328 310.606 197.341 309.783 197.654 309.055L204.238 293.81C204.629 292.886 205.197 292.049 205.911 291.345C206.625 290.642 207.47 290.086 208.399 289.71C209.327 289.334 210.32 289.145 211.321 289.154C212.322 289.163 213.311 289.369 214.233 289.761C215.155 290.153 215.99 290.723 216.692 291.439C217.394 292.154 217.948 293.002 218.323 293.932C218.698 294.862 218.887 295.858 218.878 296.861C218.869 297.865 218.664 298.857 218.273 299.781C218.258 299.814 218.244 299.848 218.229 299.881L211.646 315.127C211.414 315.662 211.031 316.117 210.545 316.438C210.059 316.758 209.49 316.93 208.908 316.931Z" fill="#F6F6F6"/>
<path d="M228.403 278.82C237.395 278.82 244.685 271.513 244.685 262.499C244.685 253.485 237.395 246.178 228.403 246.178C219.412 246.178 212.122 253.485 212.122 262.499C212.122 271.513 219.412 278.82 228.403 278.82Z" fill="#FEB8B8"/>
<path d="M211.829 254.479C219.541 259.198 228.235 262.07 237.235 262.871L234.557 259.654C236.507 260.377 238.559 260.785 240.636 260.864C241.676 260.894 242.709 260.68 243.652 260.238C244.594 259.795 245.42 259.138 246.063 258.318C246.588 257.467 246.9 256.501 246.972 255.503C247.044 254.504 246.875 253.503 246.478 252.585C245.662 250.753 244.391 249.161 242.788 247.96C239.946 245.706 236.591 244.192 233.024 243.553C229.456 242.914 225.786 243.169 222.341 244.297C219.978 245.005 217.862 246.366 216.234 248.224C214.691 250.133 211.719 251.833 212.51 254.159L211.829 254.479Z" fill="#2F2E41"/>
<path d="M229.859 240.73C233.104 237.43 237.032 234.884 241.365 233.27C244.115 232.11 247.132 231.735 250.081 232.185C252.989 232.772 255.739 234.788 256.55 237.648C257.212 239.987 256.529 242.505 255.499 244.707C254.47 246.91 253.095 248.95 252.263 251.234C251.413 253.564 251.158 256.07 251.519 258.524C251.881 260.978 252.848 263.303 254.334 265.287C255.819 267.271 257.775 268.852 260.025 269.886C262.274 270.92 264.746 271.375 267.215 271.209C264.358 271.593 261.725 272.939 258.932 273.655C256.14 274.371 252.844 274.323 250.768 272.317C248.573 270.195 248.529 266.745 248.635 263.69L249.108 250.063C249.188 247.747 249.257 245.357 248.423 243.194C247.59 241.031 245.609 239.139 243.297 239.159C241.545 239.173 239.994 240.238 238.589 241.287C237.183 242.336 235.696 243.456 233.951 243.612C232.205 243.769 230.212 242.475 230.343 240.722" fill="#2F2E41"/>
<path d="M201.031 344.535C199.952 344.534 198.887 344.293 197.912 343.829C196.938 343.366 196.078 342.691 195.394 341.854C194.711 341.017 194.222 340.039 193.961 338.99C193.7 337.94 193.675 336.846 193.887 335.786C194.099 334.726 194.543 333.726 195.187 332.858C195.831 331.99 196.659 331.277 197.611 330.769C198.563 330.26 199.616 329.97 200.694 329.919C201.771 329.867 202.847 330.056 203.843 330.472C204.142 330.599 204.433 330.746 204.712 330.913L234.37 317.567L235.204 309.504L247.988 309.161L247.904 322.585C247.888 324.14 247.373 325.649 246.434 326.887C245.495 328.125 244.183 329.027 242.692 329.459L208.01 339.353C207.943 339.583 207.864 339.809 207.773 340.03C207.217 341.362 206.281 342.5 205.082 343.302C203.883 344.103 202.475 344.532 201.034 344.535L201.031 344.535Z" fill="#FEB8B8"/>
<path d="M246.905 315.739C246.542 315.923 246.144 316.031 245.738 316.055L236.475 316.626C235.685 316.674 234.909 316.406 234.317 315.88C233.724 315.355 233.364 314.616 233.314 313.825L232.298 297.244C232.176 295.222 232.859 293.235 234.199 291.718C235.538 290.201 237.422 289.28 239.439 289.155C241.456 289.031 243.439 289.714 244.953 291.055C246.468 292.395 247.389 294.284 247.516 296.305L248.533 312.887C248.568 313.469 248.433 314.049 248.144 314.556C247.855 315.062 247.425 315.473 246.906 315.739H246.905Z" fill="#F7F7F7"/>
<path d="M228.253 341.56H172.925C172.461 341.56 172.084 341.937 172.084 342.403V345.369C172.084 345.835 172.461 346.212 172.925 346.212H228.253C228.717 346.212 229.093 345.835 229.093 345.369V342.403C229.093 341.937 228.717 341.56 228.253 341.56Z" fill="#3F3D56"/>
<path d="M150.825 341.893V309.332C150.827 308.187 151.281 307.089 152.089 306.279C152.896 305.47 153.992 305.014 155.134 305.013H214.131C215.274 305.014 216.369 305.469 217.177 306.279C217.984 307.089 218.439 308.187 218.44 309.332V341.893C218.439 343.038 217.984 344.136 217.177 344.946C216.369 345.755 215.274 346.211 214.131 346.212H155.134C153.992 346.211 152.896 345.755 152.089 344.945C151.281 344.136 150.827 343.038 150.825 341.893Z" fill="#3F3D56"/>
<path d="M185.342 329.601C187.539 329.601 189.32 327.816 189.32 325.614C189.32 323.412 187.539 321.627 185.342 321.627C183.146 321.627 181.365 323.412 181.365 325.614C181.365 327.816 183.146 329.601 185.342 329.601Z" fill="white"/>
</g>
<path d="M140.83 116.584C140.645 117.375 140.454 118.205 140.259 119.074C140.073 119.943 139.902 120.798 139.746 121.638C139.59 122.468 139.458 123.229 139.351 123.923H135.249L135.044 123.601C135.22 122.888 135.444 122.131 135.718 121.33C136.001 120.52 136.304 119.709 136.626 118.898C136.958 118.078 137.29 117.307 137.622 116.584H140.83ZM133.989 116.584C133.804 117.375 133.613 118.205 133.418 119.074C133.232 119.943 133.062 120.798 132.905 121.638C132.749 122.468 132.617 123.229 132.51 123.923H128.408L128.203 123.601C128.379 122.888 128.604 122.131 128.877 121.33C129.16 120.52 129.463 119.709 129.785 118.898C130.117 118.078 130.449 117.307 130.781 116.584H133.989ZM156.226 138H143.892V116.584H156.226V120.305H148.433V125.007H155.684V128.728H148.433V134.25H156.226V138ZM163.711 129.636L158.438 121.623H163.506L166.685 126.838L169.893 121.623H174.961L169.629 129.636L175.21 138H170.127L166.685 132.39L163.228 138H158.159L163.711 129.636ZM186.812 121.315C188.657 121.315 190.146 122.033 191.279 123.469C192.422 124.904 192.993 127.009 192.993 129.782C192.993 131.638 192.725 133.2 192.188 134.47C191.65 135.729 190.908 136.682 189.961 137.326C189.014 137.971 187.925 138.293 186.694 138.293C185.903 138.293 185.225 138.195 184.658 138C184.092 137.795 183.608 137.536 183.208 137.224C182.808 136.901 182.461 136.56 182.168 136.198H181.934C182.012 136.589 182.07 136.989 182.109 137.399C182.148 137.81 182.168 138.21 182.168 138.601V145.207H177.7V121.623H181.333L181.963 123.747H182.168C182.461 123.308 182.817 122.902 183.237 122.531C183.657 122.16 184.16 121.867 184.746 121.652C185.342 121.428 186.03 121.315 186.812 121.315ZM185.376 124.89C184.595 124.89 183.975 125.051 183.516 125.373C183.057 125.695 182.72 126.179 182.505 126.823C182.3 127.468 182.188 128.283 182.168 129.27V129.753C182.168 130.808 182.266 131.701 182.461 132.434C182.666 133.166 183.003 133.723 183.472 134.104C183.95 134.484 184.604 134.675 185.435 134.675C186.118 134.675 186.68 134.484 187.119 134.104C187.559 133.723 187.886 133.166 188.101 132.434C188.325 131.691 188.438 130.788 188.438 129.724C188.438 128.122 188.188 126.916 187.69 126.105C187.192 125.295 186.421 124.89 185.376 124.89ZM201.152 138H196.685V115.207H201.152V138ZM220.737 129.782C220.737 131.149 220.552 132.36 220.181 133.415C219.819 134.47 219.287 135.363 218.584 136.096C217.891 136.818 217.051 137.365 216.064 137.736C215.088 138.107 213.984 138.293 212.754 138.293C211.602 138.293 210.542 138.107 209.575 137.736C208.618 137.365 207.783 136.818 207.07 136.096C206.367 135.363 205.82 134.47 205.43 133.415C205.049 132.36 204.858 131.149 204.858 129.782C204.858 127.966 205.181 126.428 205.825 125.168C206.47 123.908 207.388 122.951 208.579 122.297C209.771 121.643 211.191 121.315 212.842 121.315C214.375 121.315 215.732 121.643 216.914 122.297C218.105 122.951 219.038 123.908 219.712 125.168C220.396 126.428 220.737 127.966 220.737 129.782ZM209.414 129.782C209.414 130.856 209.531 131.76 209.766 132.492C210 133.225 210.366 133.776 210.864 134.147C211.362 134.519 212.012 134.704 212.812 134.704C213.604 134.704 214.243 134.519 214.731 134.147C215.229 133.776 215.591 133.225 215.815 132.492C216.05 131.76 216.167 130.856 216.167 129.782C216.167 128.698 216.05 127.8 215.815 127.087C215.591 126.364 215.229 125.822 214.731 125.461C214.233 125.1 213.584 124.919 212.783 124.919C211.602 124.919 210.742 125.324 210.205 126.135C209.678 126.945 209.414 128.161 209.414 129.782ZM233.569 121.315C233.794 121.315 234.053 121.33 234.346 121.359C234.648 121.379 234.893 121.408 235.078 121.447L234.741 125.637C234.595 125.588 234.385 125.554 234.111 125.534C233.848 125.505 233.618 125.49 233.423 125.49C232.847 125.49 232.285 125.563 231.738 125.71C231.201 125.856 230.718 126.096 230.288 126.428C229.858 126.75 229.517 127.18 229.263 127.717C229.019 128.244 228.896 128.894 228.896 129.665V138H224.429V121.623H227.812L228.472 124.377H228.691C229.014 123.82 229.414 123.312 229.893 122.854C230.381 122.385 230.933 122.014 231.548 121.74C232.173 121.457 232.847 121.315 233.569 121.315ZM244.805 121.315C246.318 121.315 247.622 121.608 248.716 122.194C249.81 122.771 250.654 123.61 251.25 124.714C251.846 125.817 252.144 127.165 252.144 128.757V130.925H241.582C241.631 132.185 242.007 133.176 242.71 133.898C243.423 134.611 244.409 134.968 245.669 134.968C246.714 134.968 247.671 134.86 248.54 134.646C249.409 134.431 250.303 134.108 251.221 133.679V137.136C250.41 137.536 249.561 137.829 248.672 138.015C247.793 138.2 246.724 138.293 245.464 138.293C243.823 138.293 242.368 137.99 241.099 137.385C239.839 136.779 238.848 135.856 238.125 134.616C237.412 133.376 237.056 131.813 237.056 129.929C237.056 128.015 237.378 126.423 238.022 125.153C238.677 123.874 239.585 122.917 240.747 122.282C241.909 121.638 243.262 121.315 244.805 121.315ZM244.834 124.494C243.965 124.494 243.242 124.772 242.666 125.329C242.1 125.886 241.772 126.76 241.685 127.951H247.954C247.944 127.287 247.822 126.696 247.588 126.179C247.363 125.661 247.021 125.251 246.562 124.948C246.113 124.646 245.537 124.494 244.834 124.494ZM278.452 129.782C278.452 131.149 278.267 132.36 277.896 133.415C277.534 134.47 277.002 135.363 276.299 136.096C275.605 136.818 274.766 137.365 273.779 137.736C272.803 138.107 271.699 138.293 270.469 138.293C269.316 138.293 268.257 138.107 267.29 137.736C266.333 137.365 265.498 136.818 264.785 136.096C264.082 135.363 263.535 134.47 263.145 133.415C262.764 132.36 262.573 131.149 262.573 129.782C262.573 127.966 262.896 126.428 263.54 125.168C264.185 123.908 265.103 122.951 266.294 122.297C267.485 121.643 268.906 121.315 270.557 121.315C272.09 121.315 273.447 121.643 274.629 122.297C275.82 122.951 276.753 123.908 277.427 125.168C278.11 126.428 278.452 127.966 278.452 129.782ZM267.129 129.782C267.129 130.856 267.246 131.76 267.48 132.492C267.715 133.225 268.081 133.776 268.579 134.147C269.077 134.519 269.727 134.704 270.527 134.704C271.318 134.704 271.958 134.519 272.446 134.147C272.944 133.776 273.306 133.225 273.53 132.492C273.765 131.76 273.882 130.856 273.882 129.782C273.882 128.698 273.765 127.8 273.53 127.087C273.306 126.364 272.944 125.822 272.446 125.461C271.948 125.1 271.299 124.919 270.498 124.919C269.316 124.919 268.457 125.324 267.92 126.135C267.393 126.945 267.129 128.161 267.129 129.782ZM297.173 121.623V138H293.745L293.145 135.905H292.91C292.559 136.462 292.119 136.916 291.592 137.268C291.064 137.619 290.483 137.878 289.849 138.044C289.214 138.21 288.555 138.293 287.871 138.293C286.699 138.293 285.679 138.088 284.81 137.678C283.94 137.258 283.262 136.608 282.773 135.729C282.295 134.851 282.056 133.708 282.056 132.302V121.623H286.523V131.188C286.523 132.36 286.733 133.244 287.153 133.84C287.573 134.436 288.242 134.733 289.16 134.733C290.068 134.733 290.781 134.528 291.299 134.118C291.816 133.698 292.178 133.088 292.383 132.287C292.598 131.477 292.705 130.49 292.705 129.328V121.623H297.173ZM311.001 121.315C311.226 121.315 311.484 121.33 311.777 121.359C312.08 121.379 312.324 121.408 312.51 121.447L312.173 125.637C312.026 125.588 311.816 125.554 311.543 125.534C311.279 125.505 311.05 125.49 310.854 125.49C310.278 125.49 309.717 125.563 309.17 125.71C308.633 125.856 308.149 126.096 307.72 126.428C307.29 126.75 306.948 127.18 306.694 127.717C306.45 128.244 306.328 128.894 306.328 129.665V138H301.86V121.623H305.244L305.903 124.377H306.123C306.445 123.82 306.846 123.312 307.324 122.854C307.812 122.385 308.364 122.014 308.979 121.74C309.604 121.457 310.278 121.315 311.001 121.315ZM327.744 121.623V138H323.276V121.623H327.744ZM325.518 115.207C326.182 115.207 326.753 115.363 327.231 115.676C327.71 115.979 327.949 116.55 327.949 117.39C327.949 118.22 327.71 118.796 327.231 119.118C326.753 119.431 326.182 119.587 325.518 119.587C324.844 119.587 324.268 119.431 323.789 119.118C323.32 118.796 323.086 118.22 323.086 117.39C323.086 116.55 323.32 115.979 323.789 115.676C324.268 115.363 324.844 115.207 325.518 115.207ZM341.748 121.315C343.496 121.315 344.902 121.794 345.967 122.751C347.031 123.698 347.563 125.222 347.563 127.321V138H343.096V128.435C343.096 127.263 342.881 126.379 342.451 125.783C342.031 125.188 341.367 124.89 340.459 124.89C339.092 124.89 338.159 125.354 337.661 126.281C337.163 127.209 336.914 128.547 336.914 130.295V138H332.446V121.623H335.859L336.46 123.718H336.709C337.061 123.151 337.495 122.692 338.013 122.341C338.54 121.989 339.121 121.73 339.756 121.564C340.4 121.398 341.064 121.315 341.748 121.315ZM359.062 134.733C359.551 134.733 360.024 134.685 360.483 134.587C360.952 134.489 361.416 134.367 361.875 134.221V137.546C361.396 137.761 360.801 137.937 360.088 138.073C359.385 138.22 358.613 138.293 357.773 138.293C356.797 138.293 355.918 138.137 355.137 137.824C354.365 137.502 353.755 136.95 353.306 136.169C352.866 135.378 352.646 134.279 352.646 132.873V124.978H350.508V123.088L352.969 121.594L354.258 118.137H357.114V121.623H361.699V124.978H357.114V132.873C357.114 133.498 357.29 133.967 357.642 134.279C358.003 134.582 358.477 134.733 359.062 134.733ZM371.953 121.315C373.467 121.315 374.771 121.608 375.864 122.194C376.958 122.771 377.803 123.61 378.398 124.714C378.994 125.817 379.292 127.165 379.292 128.757V130.925H368.73C368.779 132.185 369.155 133.176 369.858 133.898C370.571 134.611 371.558 134.968 372.817 134.968C373.862 134.968 374.819 134.86 375.688 134.646C376.558 134.431 377.451 134.108 378.369 133.679V137.136C377.559 137.536 376.709 137.829 375.82 138.015C374.941 138.2 373.872 138.293 372.612 138.293C370.972 138.293 369.517 137.99 368.247 137.385C366.987 136.779 365.996 135.856 365.273 134.616C364.561 133.376 364.204 131.813 364.204 129.929C364.204 128.015 364.526 126.423 365.171 125.153C365.825 123.874 366.733 122.917 367.896 122.282C369.058 121.638 370.41 121.315 371.953 121.315ZM371.982 124.494C371.113 124.494 370.391 124.772 369.814 125.329C369.248 125.886 368.921 126.76 368.833 127.951H375.103C375.093 127.287 374.971 126.696 374.736 126.179C374.512 125.661 374.17 125.251 373.711 124.948C373.262 124.646 372.686 124.494 371.982 124.494ZM392.065 121.315C392.29 121.315 392.549 121.33 392.842 121.359C393.145 121.379 393.389 121.408 393.574 121.447L393.237 125.637C393.091 125.588 392.881 125.554 392.607 125.534C392.344 125.505 392.114 125.49 391.919 125.49C391.343 125.49 390.781 125.563 390.234 125.71C389.697 125.856 389.214 126.096 388.784 126.428C388.354 126.75 388.013 127.18 387.759 127.717C387.515 128.244 387.393 128.894 387.393 129.665V138H382.925V121.623H386.309L386.968 124.377H387.188C387.51 123.82 387.91 123.312 388.389 122.854C388.877 122.385 389.429 122.014 390.044 121.74C390.669 121.457 391.343 121.315 392.065 121.315ZM405.85 121.315C407.598 121.315 409.004 121.794 410.068 122.751C411.133 123.698 411.665 125.222 411.665 127.321V138H407.197V128.435C407.197 127.263 406.982 126.379 406.553 125.783C406.133 125.188 405.469 124.89 404.561 124.89C403.193 124.89 402.261 125.354 401.763 126.281C401.265 127.209 401.016 128.547 401.016 130.295V138H396.548V121.623H399.961L400.562 123.718H400.811C401.162 123.151 401.597 122.692 402.114 122.341C402.642 121.989 403.223 121.73 403.857 121.564C404.502 121.398 405.166 121.315 405.85 121.315ZM422.974 121.286C425.171 121.286 426.855 121.765 428.027 122.722C429.199 123.679 429.785 125.134 429.785 127.087V138H426.665L425.801 135.773H425.684C425.215 136.359 424.736 136.838 424.248 137.209C423.76 137.58 423.198 137.854 422.563 138.029C421.929 138.205 421.157 138.293 420.249 138.293C419.282 138.293 418.413 138.107 417.642 137.736C416.88 137.365 416.279 136.799 415.84 136.037C415.4 135.266 415.181 134.289 415.181 133.107C415.181 131.369 415.791 130.09 417.012 129.27C418.232 128.439 420.063 127.98 422.505 127.893L425.347 127.805V127.087C425.347 126.228 425.122 125.598 424.673 125.197C424.224 124.797 423.599 124.597 422.798 124.597C422.007 124.597 421.23 124.709 420.469 124.934C419.707 125.158 418.945 125.441 418.184 125.783L416.704 122.766C417.573 122.307 418.545 121.945 419.619 121.682C420.703 121.418 421.821 121.286 422.974 121.286ZM425.347 130.412L423.618 130.471C422.173 130.51 421.167 130.769 420.601 131.247C420.044 131.726 419.766 132.355 419.766 133.137C419.766 133.82 419.966 134.309 420.366 134.602C420.767 134.885 421.289 135.026 421.934 135.026C422.891 135.026 423.696 134.743 424.351 134.177C425.015 133.61 425.347 132.805 425.347 131.76V130.412ZM438.867 138H434.399V115.207H438.867V138ZM460.474 121.315C462.319 121.315 463.809 122.033 464.941 123.469C466.084 124.904 466.655 127.009 466.655 129.782C466.655 131.638 466.387 133.2 465.85 134.47C465.312 135.729 464.57 136.682 463.623 137.326C462.676 137.971 461.587 138.293 460.356 138.293C459.565 138.293 458.887 138.195 458.32 138C457.754 137.795 457.271 137.536 456.87 137.224C456.47 136.901 456.123 136.56 455.83 136.198H455.596C455.674 136.589 455.732 136.989 455.771 137.399C455.811 137.81 455.83 138.21 455.83 138.601V145.207H451.362V121.623H454.995L455.625 123.747H455.83C456.123 123.308 456.479 122.902 456.899 122.531C457.319 122.16 457.822 121.867 458.408 121.652C459.004 121.428 459.692 121.315 460.474 121.315ZM459.038 124.89C458.257 124.89 457.637 125.051 457.178 125.373C456.719 125.695 456.382 126.179 456.167 126.823C455.962 127.468 455.85 128.283 455.83 129.27V129.753C455.83 130.808 455.928 131.701 456.123 132.434C456.328 133.166 456.665 133.723 457.134 134.104C457.612 134.484 458.267 134.675 459.097 134.675C459.78 134.675 460.342 134.484 460.781 134.104C461.221 133.723 461.548 133.166 461.763 132.434C461.987 131.691 462.1 130.788 462.1 129.724C462.1 128.122 461.851 126.916 461.353 126.105C460.854 125.295 460.083 124.89 459.038 124.89ZM485.229 129.782C485.229 131.149 485.044 132.36 484.673 133.415C484.312 134.47 483.779 135.363 483.076 136.096C482.383 136.818 481.543 137.365 480.557 137.736C479.58 138.107 478.477 138.293 477.246 138.293C476.094 138.293 475.034 138.107 474.067 137.736C473.11 137.365 472.275 136.818 471.562 136.096C470.859 135.363 470.312 134.47 469.922 133.415C469.541 132.36 469.351 131.149 469.351 129.782C469.351 127.966 469.673 126.428 470.317 125.168C470.962 123.908 471.88 122.951 473.071 122.297C474.263 121.643 475.684 121.315 477.334 121.315C478.867 121.315 480.225 121.643 481.406 122.297C482.598 122.951 483.53 123.908 484.204 125.168C484.888 126.428 485.229 127.966 485.229 129.782ZM473.906 129.782C473.906 130.856 474.023 131.76 474.258 132.492C474.492 133.225 474.858 133.776 475.356 134.147C475.854 134.519 476.504 134.704 477.305 134.704C478.096 134.704 478.735 134.519 479.224 134.147C479.722 133.776 480.083 133.225 480.308 132.492C480.542 131.76 480.659 130.856 480.659 129.782C480.659 128.698 480.542 127.8 480.308 127.087C480.083 126.364 479.722 125.822 479.224 125.461C478.726 125.1 478.076 124.919 477.275 124.919C476.094 124.919 475.234 125.324 474.697 126.135C474.17 126.945 473.906 128.161 473.906 129.782ZM498.062 121.315C498.286 121.315 498.545 121.33 498.838 121.359C499.141 121.379 499.385 121.408 499.57 121.447L499.233 125.637C499.087 125.588 498.877 125.554 498.604 125.534C498.34 125.505 498.11 125.49 497.915 125.49C497.339 125.49 496.777 125.563 496.23 125.71C495.693 125.856 495.21 126.096 494.78 126.428C494.351 126.75 494.009 127.18 493.755 127.717C493.511 128.244 493.389 128.894 493.389 129.665V138H488.921V121.623H492.305L492.964 124.377H493.184C493.506 123.82 493.906 123.312 494.385 122.854C494.873 122.385 495.425 122.014 496.04 121.74C496.665 121.457 497.339 121.315 498.062 121.315ZM509.443 134.733C509.932 134.733 510.405 134.685 510.864 134.587C511.333 134.489 511.797 134.367 512.256 134.221V137.546C511.777 137.761 511.182 137.937 510.469 138.073C509.766 138.22 508.994 138.293 508.154 138.293C507.178 138.293 506.299 138.137 505.518 137.824C504.746 137.502 504.136 136.95 503.687 136.169C503.247 135.378 503.027 134.279 503.027 132.873V124.978H500.889V123.088L503.35 121.594L504.639 118.137H507.495V121.623H512.08V124.978H507.495V132.873C507.495 133.498 507.671 133.967 508.022 134.279C508.384 134.582 508.857 134.733 509.443 134.733ZM522.29 121.286C524.487 121.286 526.172 121.765 527.344 122.722C528.516 123.679 529.102 125.134 529.102 127.087V138H525.981L525.117 135.773H525C524.531 136.359 524.053 136.838 523.564 137.209C523.076 137.58 522.515 137.854 521.88 138.029C521.245 138.205 520.474 138.293 519.565 138.293C518.599 138.293 517.729 138.107 516.958 137.736C516.196 137.365 515.596 136.799 515.156 136.037C514.717 135.266 514.497 134.289 514.497 133.107C514.497 131.369 515.107 130.09 516.328 129.27C517.549 128.439 519.38 127.98 521.821 127.893L524.663 127.805V127.087C524.663 126.228 524.438 125.598 523.989 125.197C523.54 124.797 522.915 124.597 522.114 124.597C521.323 124.597 520.547 124.709 519.785 124.934C519.023 125.158 518.262 125.441 517.5 125.783L516.021 122.766C516.89 122.307 517.861 121.945 518.936 121.682C520.02 121.418 521.138 121.286 522.29 121.286ZM524.663 130.412L522.935 130.471C521.489 130.51 520.483 130.769 519.917 131.247C519.36 131.726 519.082 132.355 519.082 133.137C519.082 133.82 519.282 134.309 519.683 134.602C520.083 134.885 520.605 135.026 521.25 135.026C522.207 135.026 523.013 134.743 523.667 134.177C524.331 133.61 524.663 132.805 524.663 131.76V130.412ZM538.184 138H533.716V115.207H538.184V138ZM559.731 124.978H555.864V138H551.396V124.978H548.936V122.824L551.396 121.623V120.422C551.396 119.025 551.631 117.941 552.1 117.17C552.578 116.389 553.247 115.842 554.106 115.529C554.976 115.207 556.001 115.046 557.183 115.046C558.052 115.046 558.843 115.119 559.556 115.266C560.269 115.402 560.85 115.559 561.299 115.734L560.156 119.016C559.814 118.908 559.443 118.811 559.043 118.723C558.643 118.635 558.184 118.591 557.666 118.591C557.041 118.591 556.582 118.781 556.289 119.162C556.006 119.533 555.864 120.012 555.864 120.598V121.623H559.731V124.978ZM577.192 129.782C577.192 131.149 577.007 132.36 576.636 133.415C576.274 134.47 575.742 135.363 575.039 136.096C574.346 136.818 573.506 137.365 572.52 137.736C571.543 138.107 570.439 138.293 569.209 138.293C568.057 138.293 566.997 138.107 566.03 137.736C565.073 137.365 564.238 136.818 563.525 136.096C562.822 135.363 562.275 134.47 561.885 133.415C561.504 132.36 561.313 131.149 561.313 129.782C561.313 127.966 561.636 126.428 562.28 125.168C562.925 123.908 563.843 122.951 565.034 122.297C566.226 121.643 567.646 121.315 569.297 121.315C570.83 121.315 572.188 121.643 573.369 122.297C574.561 122.951 575.493 123.908 576.167 125.168C576.851 126.428 577.192 127.966 577.192 129.782ZM565.869 129.782C565.869 130.856 565.986 131.76 566.221 132.492C566.455 133.225 566.821 133.776 567.319 134.147C567.817 134.519 568.467 134.704 569.268 134.704C570.059 134.704 570.698 134.519 571.187 134.147C571.685 133.776 572.046 133.225 572.271 132.492C572.505 131.76 572.622 130.856 572.622 129.782C572.622 128.698 572.505 127.8 572.271 127.087C572.046 126.364 571.685 125.822 571.187 125.461C570.688 125.1 570.039 124.919 569.238 124.919C568.057 124.919 567.197 125.324 566.66 126.135C566.133 126.945 565.869 128.161 565.869 129.782ZM590.024 121.315C590.249 121.315 590.508 121.33 590.801 121.359C591.104 121.379 591.348 121.408 591.533 121.447L591.196 125.637C591.05 125.588 590.84 125.554 590.566 125.534C590.303 125.505 590.073 125.49 589.878 125.49C589.302 125.49 588.74 125.563 588.193 125.71C587.656 125.856 587.173 126.096 586.743 126.428C586.313 126.75 585.972 127.18 585.718 127.717C585.474 128.244 585.352 128.894 585.352 129.665V138H580.884V121.623H584.268L584.927 124.377H585.146C585.469 123.82 585.869 123.312 586.348 122.854C586.836 122.385 587.388 122.014 588.003 121.74C588.628 121.457 589.302 121.315 590.024 121.315ZM177.29 174.137C177.29 175.25 177.026 176.192 176.499 176.964C175.981 177.726 175.205 178.307 174.17 178.707C173.135 179.098 171.846 179.293 170.303 179.293C169.16 179.293 168.179 179.22 167.358 179.073C166.548 178.927 165.728 178.683 164.897 178.341V174.649C165.786 175.05 166.738 175.382 167.754 175.646C168.779 175.899 169.678 176.026 170.449 176.026C171.318 176.026 171.938 175.899 172.31 175.646C172.69 175.382 172.881 175.04 172.881 174.62C172.881 174.347 172.803 174.103 172.646 173.888C172.5 173.663 172.178 173.414 171.68 173.141C171.182 172.857 170.4 172.491 169.336 172.042C168.311 171.612 167.466 171.178 166.802 170.738C166.147 170.299 165.659 169.781 165.337 169.186C165.024 168.58 164.868 167.813 164.868 166.886C164.868 165.372 165.454 164.234 166.626 163.473C167.808 162.701 169.385 162.315 171.357 162.315C172.373 162.315 173.34 162.418 174.258 162.623C175.186 162.828 176.138 163.155 177.114 163.604L175.767 166.827C174.956 166.476 174.189 166.188 173.467 165.963C172.754 165.738 172.026 165.626 171.284 165.626C170.63 165.626 170.137 165.714 169.805 165.89C169.473 166.065 169.307 166.334 169.307 166.695C169.307 166.959 169.39 167.193 169.556 167.398C169.731 167.604 170.063 167.833 170.552 168.087C171.05 168.331 171.777 168.648 172.734 169.039C173.662 169.42 174.468 169.82 175.151 170.24C175.835 170.65 176.362 171.163 176.733 171.778C177.104 172.384 177.29 173.17 177.29 174.137ZM187.676 175.733C188.164 175.733 188.638 175.685 189.097 175.587C189.565 175.489 190.029 175.367 190.488 175.221V178.546C190.01 178.761 189.414 178.937 188.701 179.073C187.998 179.22 187.227 179.293 186.387 179.293C185.41 179.293 184.531 179.137 183.75 178.824C182.979 178.502 182.368 177.95 181.919 177.169C181.479 176.378 181.26 175.279 181.26 173.873V165.978H179.121V164.088L181.582 162.594L182.871 159.137H185.728V162.623H190.312V165.978H185.728V173.873C185.728 174.498 185.903 174.967 186.255 175.279C186.616 175.582 187.09 175.733 187.676 175.733ZM202.954 162.315C203.179 162.315 203.438 162.33 203.73 162.359C204.033 162.379 204.277 162.408 204.463 162.447L204.126 166.637C203.979 166.588 203.77 166.554 203.496 166.534C203.232 166.505 203.003 166.49 202.808 166.49C202.231 166.49 201.67 166.563 201.123 166.71C200.586 166.856 200.103 167.096 199.673 167.428C199.243 167.75 198.901 168.18 198.647 168.717C198.403 169.244 198.281 169.894 198.281 170.665V179H193.813V162.623H197.197L197.856 165.377H198.076C198.398 164.82 198.799 164.312 199.277 163.854C199.766 163.385 200.317 163.014 200.933 162.74C201.558 162.457 202.231 162.315 202.954 162.315ZM214.189 162.315C215.703 162.315 217.007 162.608 218.101 163.194C219.194 163.771 220.039 164.61 220.635 165.714C221.23 166.817 221.528 168.165 221.528 169.757V171.925H210.967C211.016 173.185 211.392 174.176 212.095 174.898C212.808 175.611 213.794 175.968 215.054 175.968C216.099 175.968 217.056 175.86 217.925 175.646C218.794 175.431 219.688 175.108 220.605 174.679V178.136C219.795 178.536 218.945 178.829 218.057 179.015C217.178 179.2 216.108 179.293 214.849 179.293C213.208 179.293 211.753 178.99 210.483 178.385C209.224 177.779 208.232 176.856 207.51 175.616C206.797 174.376 206.44 172.813 206.44 170.929C206.44 169.015 206.763 167.423 207.407 166.153C208.062 164.874 208.97 163.917 210.132 163.282C211.294 162.638 212.646 162.315 214.189 162.315ZM214.219 165.494C213.35 165.494 212.627 165.772 212.051 166.329C211.484 166.886 211.157 167.76 211.069 168.951H217.339C217.329 168.287 217.207 167.696 216.973 167.179C216.748 166.661 216.406 166.251 215.947 165.948C215.498 165.646 214.922 165.494 214.219 165.494ZM231.87 162.286C234.067 162.286 235.752 162.765 236.924 163.722C238.096 164.679 238.682 166.134 238.682 168.087V179H235.562L234.697 176.773H234.58C234.111 177.359 233.633 177.838 233.145 178.209C232.656 178.58 232.095 178.854 231.46 179.029C230.825 179.205 230.054 179.293 229.146 179.293C228.179 179.293 227.31 179.107 226.538 178.736C225.776 178.365 225.176 177.799 224.736 177.037C224.297 176.266 224.077 175.289 224.077 174.107C224.077 172.369 224.688 171.09 225.908 170.27C227.129 169.439 228.96 168.98 231.401 168.893L234.243 168.805V168.087C234.243 167.228 234.019 166.598 233.569 166.197C233.12 165.797 232.495 165.597 231.694 165.597C230.903 165.597 230.127 165.709 229.365 165.934C228.604 166.158 227.842 166.441 227.08 166.783L225.601 163.766C226.47 163.307 227.441 162.945 228.516 162.682C229.6 162.418 230.718 162.286 231.87 162.286ZM234.243 171.412L232.515 171.471C231.069 171.51 230.063 171.769 229.497 172.247C228.94 172.726 228.662 173.355 228.662 174.137C228.662 174.82 228.862 175.309 229.263 175.602C229.663 175.885 230.186 176.026 230.83 176.026C231.787 176.026 232.593 175.743 233.247 175.177C233.911 174.61 234.243 173.805 234.243 172.76V171.412ZM262.529 162.315C264.385 162.315 265.786 162.794 266.733 163.751C267.69 164.698 268.169 166.222 268.169 168.321V179H263.687V169.435C263.687 168.263 263.486 167.379 263.086 166.783C262.686 166.188 262.065 165.89 261.226 165.89C260.044 165.89 259.204 166.314 258.706 167.164C258.208 168.004 257.959 169.21 257.959 170.782V179H253.491V169.435C253.491 168.653 253.403 167.999 253.228 167.472C253.052 166.944 252.783 166.549 252.422 166.285C252.061 166.021 251.597 165.89 251.03 165.89C250.2 165.89 249.546 166.1 249.067 166.52C248.599 166.93 248.262 167.54 248.057 168.351C247.861 169.151 247.764 170.133 247.764 171.295V179H243.296V162.623H246.709L247.31 164.718H247.559C247.891 164.151 248.306 163.692 248.804 163.341C249.312 162.989 249.868 162.73 250.474 162.564C251.079 162.398 251.694 162.315 252.319 162.315C253.521 162.315 254.536 162.511 255.366 162.901C256.206 163.292 256.851 163.897 257.3 164.718H257.695C258.184 163.878 258.872 163.268 259.761 162.887C260.659 162.506 261.582 162.315 262.529 162.315ZM277.236 179H272.769V156.207H277.236V179ZM286.406 162.623V179H281.938V162.623H286.406ZM284.18 156.207C284.844 156.207 285.415 156.363 285.894 156.676C286.372 156.979 286.611 157.55 286.611 158.39C286.611 159.22 286.372 159.796 285.894 160.118C285.415 160.431 284.844 160.587 284.18 160.587C283.506 160.587 282.93 160.431 282.451 160.118C281.982 159.796 281.748 159.22 281.748 158.39C281.748 157.55 281.982 156.979 282.451 156.676C282.93 156.363 283.506 156.207 284.18 156.207ZM300.41 162.315C302.158 162.315 303.564 162.794 304.629 163.751C305.693 164.698 306.226 166.222 306.226 168.321V179H301.758V169.435C301.758 168.263 301.543 167.379 301.113 166.783C300.693 166.188 300.029 165.89 299.121 165.89C297.754 165.89 296.821 166.354 296.323 167.281C295.825 168.209 295.576 169.547 295.576 171.295V179H291.108V162.623H294.521L295.122 164.718H295.371C295.723 164.151 296.157 163.692 296.675 163.341C297.202 162.989 297.783 162.73 298.418 162.564C299.062 162.398 299.727 162.315 300.41 162.315ZM317.578 162.315C319.092 162.315 320.396 162.608 321.489 163.194C322.583 163.771 323.428 164.61 324.023 165.714C324.619 166.817 324.917 168.165 324.917 169.757V171.925H314.355C314.404 173.185 314.78 174.176 315.483 174.898C316.196 175.611 317.183 175.968 318.442 175.968C319.487 175.968 320.444 175.86 321.313 175.646C322.183 175.431 323.076 175.108 323.994 174.679V178.136C323.184 178.536 322.334 178.829 321.445 179.015C320.566 179.2 319.497 179.293 318.237 179.293C316.597 179.293 315.142 178.99 313.872 178.385C312.612 177.779 311.621 176.856 310.898 175.616C310.186 174.376 309.829 172.813 309.829 170.929C309.829 169.015 310.151 167.423 310.796 166.153C311.45 164.874 312.358 163.917 313.521 163.282C314.683 162.638 316.035 162.315 317.578 162.315ZM317.607 165.494C316.738 165.494 316.016 165.772 315.439 166.329C314.873 166.886 314.546 167.76 314.458 168.951H320.728C320.718 168.287 320.596 167.696 320.361 167.179C320.137 166.661 319.795 166.251 319.336 165.948C318.887 165.646 318.311 165.494 317.607 165.494ZM333.735 179.293C331.909 179.293 330.42 178.58 329.268 177.154C328.125 175.719 327.554 173.614 327.554 170.841C327.554 168.038 328.135 165.919 329.297 164.483C330.459 163.038 331.978 162.315 333.853 162.315C334.634 162.315 335.322 162.423 335.918 162.638C336.514 162.853 337.026 163.141 337.456 163.502C337.896 163.863 338.267 164.269 338.569 164.718H338.716C338.657 164.405 338.584 163.946 338.496 163.341C338.418 162.726 338.379 162.096 338.379 161.451V156.207H342.861V179H339.434L338.569 176.876H338.379C338.096 177.325 337.739 177.735 337.31 178.106C336.89 178.468 336.387 178.756 335.801 178.971C335.215 179.186 334.526 179.293 333.735 179.293ZM335.303 175.733C336.523 175.733 337.383 175.372 337.881 174.649C338.389 173.917 338.657 172.818 338.687 171.354V170.87C338.687 169.278 338.442 168.062 337.954 167.223C337.466 166.373 336.558 165.948 335.229 165.948C334.243 165.948 333.472 166.373 332.915 167.223C332.358 168.072 332.08 169.298 332.08 170.899C332.08 172.501 332.358 173.707 332.915 174.518C333.481 175.328 334.277 175.733 335.303 175.733ZM355.679 179V157.584H360.22V179H355.679ZM374.561 162.315C376.309 162.315 377.715 162.794 378.779 163.751C379.844 164.698 380.376 166.222 380.376 168.321V179H375.908V169.435C375.908 168.263 375.693 167.379 375.264 166.783C374.844 166.188 374.18 165.89 373.271 165.89C371.904 165.89 370.972 166.354 370.474 167.281C369.976 168.209 369.727 169.547 369.727 171.295V179H365.259V162.623H368.672L369.272 164.718H369.521C369.873 164.151 370.308 163.692 370.825 163.341C371.353 162.989 371.934 162.73 372.568 162.564C373.213 162.398 373.877 162.315 374.561 162.315ZM394.028 165.978H390.161V179H385.693V165.978H383.232V163.824L385.693 162.623V161.422C385.693 160.025 385.928 158.941 386.396 158.17C386.875 157.389 387.544 156.842 388.403 156.529C389.272 156.207 390.298 156.046 391.479 156.046C392.349 156.046 393.14 156.119 393.853 156.266C394.565 156.402 395.146 156.559 395.596 156.734L394.453 160.016C394.111 159.908 393.74 159.811 393.34 159.723C392.939 159.635 392.48 159.591 391.963 159.591C391.338 159.591 390.879 159.781 390.586 160.162C390.303 160.533 390.161 161.012 390.161 161.598V162.623H394.028V165.978ZM411.489 170.782C411.489 172.149 411.304 173.36 410.933 174.415C410.571 175.47 410.039 176.363 409.336 177.096C408.643 177.818 407.803 178.365 406.816 178.736C405.84 179.107 404.736 179.293 403.506 179.293C402.354 179.293 401.294 179.107 400.327 178.736C399.37 178.365 398.535 177.818 397.822 177.096C397.119 176.363 396.572 175.47 396.182 174.415C395.801 173.36 395.61 172.149 395.61 170.782C395.61 168.966 395.933 167.428 396.577 166.168C397.222 164.908 398.14 163.951 399.331 163.297C400.522 162.643 401.943 162.315 403.594 162.315C405.127 162.315 406.484 162.643 407.666 163.297C408.857 163.951 409.79 164.908 410.464 166.168C411.147 167.428 411.489 168.966 411.489 170.782ZM400.166 170.782C400.166 171.856 400.283 172.76 400.518 173.492C400.752 174.225 401.118 174.776 401.616 175.147C402.114 175.519 402.764 175.704 403.564 175.704C404.355 175.704 404.995 175.519 405.483 175.147C405.981 174.776 406.343 174.225 406.567 173.492C406.802 172.76 406.919 171.856 406.919 170.782C406.919 169.698 406.802 168.8 406.567 168.087C406.343 167.364 405.981 166.822 405.483 166.461C404.985 166.1 404.336 165.919 403.535 165.919C402.354 165.919 401.494 166.324 400.957 167.135C400.43 167.945 400.166 169.161 400.166 170.782ZM424.321 162.315C424.546 162.315 424.805 162.33 425.098 162.359C425.4 162.379 425.645 162.408 425.83 162.447L425.493 166.637C425.347 166.588 425.137 166.554 424.863 166.534C424.6 166.505 424.37 166.49 424.175 166.49C423.599 166.49 423.037 166.563 422.49 166.71C421.953 166.856 421.47 167.096 421.04 167.428C420.61 167.75 420.269 168.18 420.015 168.717C419.771 169.244 419.648 169.894 419.648 170.665V179H415.181V162.623H418.564L419.224 165.377H419.443C419.766 164.82 420.166 164.312 420.645 163.854C421.133 163.385 421.685 163.014 422.3 162.74C422.925 162.457 423.599 162.315 424.321 162.315ZM448.037 162.315C449.893 162.315 451.294 162.794 452.241 163.751C453.198 164.698 453.677 166.222 453.677 168.321V179H449.194V169.435C449.194 168.263 448.994 167.379 448.594 166.783C448.193 166.188 447.573 165.89 446.733 165.89C445.552 165.89 444.712 166.314 444.214 167.164C443.716 168.004 443.467 169.21 443.467 170.782V179H438.999V169.435C438.999 168.653 438.911 167.999 438.735 167.472C438.56 166.944 438.291 166.549 437.93 166.285C437.568 166.021 437.104 165.89 436.538 165.89C435.708 165.89 435.054 166.1 434.575 166.52C434.106 166.93 433.77 167.54 433.564 168.351C433.369 169.151 433.271 170.133 433.271 171.295V179H428.804V162.623H432.217L432.817 164.718H433.066C433.398 164.151 433.813 163.692 434.312 163.341C434.819 162.989 435.376 162.73 435.981 162.564C436.587 162.398 437.202 162.315 437.827 162.315C439.028 162.315 440.044 162.511 440.874 162.901C441.714 163.292 442.358 163.897 442.808 164.718H443.203C443.691 163.878 444.38 163.268 445.269 162.887C446.167 162.506 447.09 162.315 448.037 162.315ZM464.985 162.286C467.183 162.286 468.867 162.765 470.039 163.722C471.211 164.679 471.797 166.134 471.797 168.087V179H468.677L467.812 176.773H467.695C467.227 177.359 466.748 177.838 466.26 178.209C465.771 178.58 465.21 178.854 464.575 179.029C463.94 179.205 463.169 179.293 462.261 179.293C461.294 179.293 460.425 179.107 459.653 178.736C458.892 178.365 458.291 177.799 457.852 177.037C457.412 176.266 457.192 175.289 457.192 174.107C457.192 172.369 457.803 171.09 459.023 170.27C460.244 169.439 462.075 168.98 464.517 168.893L467.358 168.805V168.087C467.358 167.228 467.134 166.598 466.685 166.197C466.235 165.797 465.61 165.597 464.81 165.597C464.019 165.597 463.242 165.709 462.48 165.934C461.719 166.158 460.957 166.441 460.195 166.783L458.716 163.766C459.585 163.307 460.557 162.945 461.631 162.682C462.715 162.418 463.833 162.286 464.985 162.286ZM467.358 171.412L465.63 171.471C464.185 171.51 463.179 171.769 462.612 172.247C462.056 172.726 461.777 173.355 461.777 174.137C461.777 174.82 461.978 175.309 462.378 175.602C462.778 175.885 463.301 176.026 463.945 176.026C464.902 176.026 465.708 175.743 466.362 175.177C467.026 174.61 467.358 173.805 467.358 172.76V171.412ZM483.311 175.733C483.799 175.733 484.272 175.685 484.731 175.587C485.2 175.489 485.664 175.367 486.123 175.221V178.546C485.645 178.761 485.049 178.937 484.336 179.073C483.633 179.22 482.861 179.293 482.021 179.293C481.045 179.293 480.166 179.137 479.385 178.824C478.613 178.502 478.003 177.95 477.554 177.169C477.114 176.378 476.895 175.279 476.895 173.873V165.978H474.756V164.088L477.217 162.594L478.506 159.137H481.362V162.623H485.947V165.978H481.362V173.873C481.362 174.498 481.538 174.967 481.89 175.279C482.251 175.582 482.725 175.733 483.311 175.733ZM493.916 162.623V179H489.448V162.623H493.916ZM491.689 156.207C492.354 156.207 492.925 156.363 493.403 156.676C493.882 156.979 494.121 157.55 494.121 158.39C494.121 159.22 493.882 159.796 493.403 160.118C492.925 160.431 492.354 160.587 491.689 160.587C491.016 160.587 490.439 160.431 489.961 160.118C489.492 159.796 489.258 159.22 489.258 158.39C489.258 157.55 489.492 156.979 489.961 156.676C490.439 156.363 491.016 156.207 491.689 156.207ZM513.501 170.782C513.501 172.149 513.315 173.36 512.944 174.415C512.583 175.47 512.051 176.363 511.348 177.096C510.654 177.818 509.814 178.365 508.828 178.736C507.852 179.107 506.748 179.293 505.518 179.293C504.365 179.293 503.306 179.107 502.339 178.736C501.382 178.365 500.547 177.818 499.834 177.096C499.131 176.363 498.584 175.47 498.193 174.415C497.812 173.36 497.622 172.149 497.622 170.782C497.622 168.966 497.944 167.428 498.589 166.168C499.233 164.908 500.151 163.951 501.343 163.297C502.534 162.643 503.955 162.315 505.605 162.315C507.139 162.315 508.496 162.643 509.678 163.297C510.869 163.951 511.802 164.908 512.476 166.168C513.159 167.428 513.501 168.966 513.501 170.782ZM502.178 170.782C502.178 171.856 502.295 172.76 502.529 173.492C502.764 174.225 503.13 174.776 503.628 175.147C504.126 175.519 504.775 175.704 505.576 175.704C506.367 175.704 507.007 175.519 507.495 175.147C507.993 174.776 508.354 174.225 508.579 173.492C508.813 172.76 508.931 171.856 508.931 170.782C508.931 169.698 508.813 168.8 508.579 168.087C508.354 167.364 507.993 166.822 507.495 166.461C506.997 166.1 506.348 165.919 505.547 165.919C504.365 165.919 503.506 166.324 502.969 167.135C502.441 167.945 502.178 169.161 502.178 170.782ZM526.494 162.315C528.242 162.315 529.648 162.794 530.713 163.751C531.777 164.698 532.31 166.222 532.31 168.321V179H527.842V169.435C527.842 168.263 527.627 167.379 527.197 166.783C526.777 166.188 526.113 165.89 525.205 165.89C523.838 165.89 522.905 166.354 522.407 167.281C521.909 168.209 521.66 169.547 521.66 171.295V179H517.192V162.623H520.605L521.206 164.718H521.455C521.807 164.151 522.241 163.692 522.759 163.341C523.286 162.989 523.867 162.73 524.502 162.564C525.146 162.398 525.811 162.315 526.494 162.315ZM536.279 176.905C536.279 175.987 536.528 175.343 537.026 174.972C537.534 174.601 538.145 174.415 538.857 174.415C539.551 174.415 540.146 174.601 540.645 174.972C541.152 175.343 541.406 175.987 541.406 176.905C541.406 177.784 541.152 178.419 540.645 178.81C540.146 179.2 539.551 179.396 538.857 179.396C538.145 179.396 537.534 179.2 537.026 178.81C536.528 178.419 536.279 177.784 536.279 176.905ZM555.894 157.584L556.113 157.906C555.938 158.619 555.708 159.381 555.425 160.191C555.142 160.992 554.839 161.798 554.517 162.608C554.194 163.419 553.867 164.19 553.535 164.923H550.327C550.513 164.132 550.698 163.302 550.884 162.433C551.069 161.563 551.24 160.709 551.396 159.869C551.562 159.029 551.694 158.268 551.792 157.584H555.894ZM549.067 157.584L549.272 157.906C549.097 158.619 548.867 159.381 548.584 160.191C548.311 160.992 548.008 161.798 547.676 162.608C547.354 163.419 547.026 164.19 546.694 164.923H543.486C543.623 164.337 543.76 163.722 543.896 163.077C544.043 162.433 544.18 161.788 544.307 161.144C544.443 160.499 544.565 159.874 544.673 159.269C544.78 158.663 544.873 158.102 544.951 157.584H549.067Z" fill="white"/>
<path d="M168.387 580V564.295H170.965V577.809H177.636V580H168.387ZM190.623 574.027C190.623 575.016 190.494 575.893 190.236 576.659C189.979 577.425 189.603 578.074 189.108 578.604C188.614 579.126 188.02 579.527 187.325 579.807C186.631 580.079 185.846 580.215 184.973 580.215C184.156 580.215 183.408 580.079 182.728 579.807C182.047 579.527 181.456 579.126 180.955 578.604C180.461 578.074 180.078 577.425 179.806 576.659C179.534 575.893 179.397 575.016 179.397 574.027C179.397 572.717 179.623 571.607 180.074 570.697C180.533 569.781 181.184 569.082 182.029 568.603C182.874 568.123 183.881 567.883 185.048 567.883C186.144 567.883 187.11 568.123 187.948 568.603C188.786 569.082 189.441 569.781 189.914 570.697C190.387 571.614 190.623 572.724 190.623 574.027ZM181.997 574.027C181.997 574.894 182.101 575.635 182.309 576.251C182.523 576.867 182.853 577.34 183.297 577.669C183.741 577.991 184.314 578.152 185.016 578.152C185.717 578.152 186.29 577.991 186.734 577.669C187.178 577.34 187.504 576.867 187.712 576.251C187.92 575.635 188.023 574.894 188.023 574.027C188.023 573.161 187.92 572.427 187.712 571.825C187.504 571.216 187.178 570.755 186.734 570.439C186.29 570.117 185.714 569.956 185.005 569.956C183.959 569.956 183.197 570.307 182.717 571.009C182.237 571.711 181.997 572.717 181.997 574.027ZM196.918 585.285C195.307 585.285 194.071 584.995 193.212 584.415C192.353 583.835 191.923 583.022 191.923 581.977C191.923 581.246 192.152 580.627 192.61 580.118C193.069 579.617 193.724 579.27 194.576 579.076C194.254 578.933 193.975 578.711 193.738 578.41C193.509 578.102 193.395 577.762 193.395 577.39C193.395 576.946 193.52 576.566 193.771 576.251C194.021 575.936 194.397 575.632 194.898 575.338C194.275 575.073 193.774 574.643 193.395 574.049C193.022 573.447 192.836 572.742 192.836 571.933C192.836 571.073 193.019 570.343 193.384 569.741C193.749 569.132 194.283 568.671 194.984 568.355C195.686 568.033 196.535 567.872 197.53 567.872C197.745 567.872 197.978 567.886 198.229 567.915C198.486 567.937 198.723 567.965 198.938 568.001C199.16 568.03 199.328 568.062 199.442 568.098H203.557V569.505L201.537 569.881C201.73 570.153 201.884 570.465 201.999 570.815C202.114 571.159 202.171 571.535 202.171 571.943C202.171 573.175 201.745 574.146 200.893 574.854C200.048 575.556 198.88 575.907 197.391 575.907C197.033 575.893 196.685 575.864 196.349 575.821C196.091 575.979 195.894 576.154 195.758 576.348C195.622 576.534 195.554 576.745 195.554 576.981C195.554 577.175 195.622 577.332 195.758 577.454C195.894 577.569 196.094 577.655 196.359 577.712C196.632 577.769 196.961 577.798 197.348 577.798H199.399C200.703 577.798 201.698 578.074 202.386 578.625C203.073 579.176 203.417 579.986 203.417 581.053C203.417 582.406 202.858 583.448 201.741 584.179C200.624 584.916 199.016 585.285 196.918 585.285ZM197.015 583.513C197.896 583.513 198.637 583.427 199.238 583.255C199.84 583.083 200.295 582.836 200.603 582.514C200.91 582.199 201.064 581.823 201.064 581.386C201.064 580.999 200.968 580.702 200.774 580.494C200.581 580.286 200.291 580.143 199.904 580.064C199.518 579.986 199.038 579.946 198.465 579.946H196.596C196.13 579.946 195.718 580.018 195.36 580.161C195.002 580.312 194.723 580.526 194.522 580.806C194.329 581.085 194.232 581.422 194.232 581.815C194.232 582.36 194.472 582.779 194.952 583.072C195.439 583.366 196.127 583.513 197.015 583.513ZM197.509 574.253C198.246 574.253 198.794 574.052 199.152 573.651C199.51 573.243 199.689 572.67 199.689 571.933C199.689 571.131 199.503 570.529 199.131 570.128C198.766 569.727 198.221 569.526 197.498 569.526C196.789 569.526 196.248 569.73 195.876 570.139C195.511 570.547 195.328 571.152 195.328 571.954C195.328 572.677 195.511 573.243 195.876 573.651C196.248 574.052 196.793 574.253 197.509 574.253ZM208.251 568.108V580H205.727V568.108H208.251ZM207.005 563.554C207.392 563.554 207.725 563.658 208.004 563.865C208.29 564.073 208.434 564.431 208.434 564.939C208.434 565.441 208.29 565.799 208.004 566.014C207.725 566.221 207.392 566.325 207.005 566.325C206.604 566.325 206.264 566.221 205.984 566.014C205.712 565.799 205.576 565.441 205.576 564.939C205.576 564.431 205.712 564.073 205.984 563.865C206.264 563.658 206.604 563.554 207.005 563.554ZM218.069 567.883C219.409 567.883 220.451 568.23 221.195 568.925C221.947 569.612 222.323 570.719 222.323 572.244V580H219.799V572.717C219.799 571.793 219.609 571.102 219.229 570.644C218.85 570.178 218.263 569.945 217.468 569.945C216.315 569.945 215.513 570.3 215.062 571.009C214.618 571.718 214.396 572.745 214.396 574.092V580H211.871V568.108H213.837L214.191 569.72H214.331C214.589 569.304 214.908 568.964 215.287 568.699C215.674 568.427 216.104 568.223 216.576 568.087C217.056 567.951 217.554 567.883 218.069 567.883ZM235.998 578.174C236.327 578.174 236.653 578.145 236.976 578.088C237.298 578.023 237.591 577.948 237.856 577.862V579.774C237.577 579.896 237.215 580 236.771 580.086C236.327 580.172 235.866 580.215 235.386 580.215C234.713 580.215 234.107 580.104 233.57 579.882C233.033 579.653 232.607 579.262 232.292 578.711C231.977 578.16 231.819 577.397 231.819 576.423V570.031H230.197V568.903L231.938 568.012L232.765 565.466H234.354V568.108H237.76V570.031H234.354V576.391C234.354 576.992 234.505 577.44 234.806 577.733C235.106 578.027 235.504 578.174 235.998 578.174ZM250.801 574.027C250.801 575.016 250.672 575.893 250.414 576.659C250.156 577.425 249.78 578.074 249.286 578.604C248.792 579.126 248.198 579.527 247.503 579.807C246.808 580.079 246.024 580.215 245.15 580.215C244.334 580.215 243.586 580.079 242.905 579.807C242.225 579.527 241.634 579.126 241.133 578.604C240.639 578.074 240.256 577.425 239.983 576.659C239.711 575.893 239.575 575.016 239.575 574.027C239.575 572.717 239.801 571.607 240.252 570.697C240.71 569.781 241.362 569.082 242.207 568.603C243.052 568.123 244.058 567.883 245.226 567.883C246.321 567.883 247.288 568.123 248.126 568.603C248.964 569.082 249.619 569.781 250.092 570.697C250.564 571.614 250.801 572.724 250.801 574.027ZM242.175 574.027C242.175 574.894 242.279 575.635 242.486 576.251C242.701 576.867 243.031 577.34 243.475 577.669C243.919 577.991 244.492 578.152 245.193 578.152C245.895 578.152 246.468 577.991 246.912 577.669C247.356 577.34 247.682 576.867 247.89 576.251C248.097 575.635 248.201 574.894 248.201 574.027C248.201 573.161 248.097 572.427 247.89 571.825C247.682 571.216 247.356 570.755 246.912 570.439C246.468 570.117 245.892 569.956 245.183 569.956C244.137 569.956 243.374 570.307 242.895 571.009C242.415 571.711 242.175 572.717 242.175 574.027ZM264.153 567.883C265.213 567.883 266.123 568.101 266.882 568.538C267.641 568.975 268.225 569.594 268.633 570.396C269.041 571.199 269.245 572.158 269.245 573.275V574.629H261.307C261.335 575.782 261.643 576.67 262.23 577.293C262.825 577.916 263.656 578.228 264.723 578.228C265.482 578.228 266.162 578.156 266.764 578.013C267.372 577.862 267.999 577.644 268.644 577.357V579.409C268.049 579.688 267.444 579.893 266.828 580.021C266.212 580.15 265.475 580.215 264.615 580.215C263.448 580.215 262.42 579.989 261.532 579.538C260.651 579.08 259.96 578.399 259.459 577.497C258.965 576.595 258.718 575.474 258.718 574.135C258.718 572.803 258.943 571.671 259.395 570.74C259.846 569.809 260.479 569.1 261.296 568.613C262.112 568.126 263.065 567.883 264.153 567.883ZM264.153 569.784C263.358 569.784 262.714 570.042 262.22 570.558C261.733 571.073 261.446 571.829 261.36 572.824H266.774C266.767 572.23 266.667 571.703 266.474 571.245C266.287 570.787 266.001 570.429 265.614 570.171C265.235 569.913 264.748 569.784 264.153 569.784ZM274.724 573.92L270.749 568.108H273.628L276.346 572.287L279.074 568.108H281.942L277.946 573.92L282.146 580H279.257L276.346 575.542L273.424 580H270.556L274.724 573.92ZM290.311 567.883C291.721 567.883 292.853 568.398 293.705 569.43C294.564 570.461 294.994 571.993 294.994 574.027C294.994 575.374 294.794 576.509 294.393 577.433C293.999 578.349 293.444 579.044 292.728 579.517C292.019 579.982 291.191 580.215 290.246 580.215C289.645 580.215 289.122 580.136 288.678 579.979C288.234 579.821 287.854 579.617 287.539 579.366C287.224 579.108 286.959 578.829 286.744 578.528H286.594C286.63 578.815 286.662 579.133 286.69 579.484C286.726 579.828 286.744 580.143 286.744 580.43V585.274H284.209V568.108H286.271L286.626 569.752H286.744C286.966 569.415 287.235 569.104 287.55 568.817C287.872 568.531 288.259 568.305 288.71 568.141C289.168 567.969 289.702 567.883 290.311 567.883ZM289.634 569.945C288.939 569.945 288.381 570.085 287.958 570.364C287.543 570.636 287.238 571.048 287.045 571.6C286.859 572.151 286.758 572.842 286.744 573.673V574.027C286.744 574.908 286.834 575.657 287.013 576.272C287.199 576.881 287.503 577.347 287.926 577.669C288.355 577.984 288.936 578.142 289.666 578.142C290.282 578.142 290.79 577.973 291.191 577.637C291.6 577.3 291.904 576.82 292.104 576.197C292.305 575.574 292.405 574.84 292.405 573.995C292.405 572.713 292.176 571.718 291.718 571.009C291.267 570.3 290.572 569.945 289.634 569.945ZM302.653 567.883C303.713 567.883 304.623 568.101 305.382 568.538C306.141 568.975 306.725 569.594 307.133 570.396C307.541 571.199 307.745 572.158 307.745 573.275V574.629H299.807C299.835 575.782 300.143 576.67 300.73 577.293C301.325 577.916 302.156 578.228 303.223 578.228C303.982 578.228 304.662 578.156 305.264 578.013C305.872 577.862 306.499 577.644 307.144 577.357V579.409C306.549 579.688 305.944 579.893 305.328 580.021C304.712 580.15 303.975 580.215 303.115 580.215C301.948 580.215 300.92 579.989 300.032 579.538C299.151 579.08 298.46 578.399 297.959 577.497C297.465 576.595 297.218 575.474 297.218 574.135C297.218 572.803 297.443 571.671 297.895 570.74C298.346 569.809 298.979 569.1 299.796 568.613C300.612 568.126 301.565 567.883 302.653 567.883ZM302.653 569.784C301.858 569.784 301.214 570.042 300.72 570.558C300.233 571.073 299.946 571.829 299.86 572.824H305.274C305.267 572.23 305.167 571.703 304.974 571.245C304.787 570.787 304.501 570.429 304.114 570.171C303.735 569.913 303.248 569.784 302.653 569.784ZM316.618 567.883C316.819 567.883 317.037 567.894 317.273 567.915C317.51 567.937 317.714 567.965 317.886 568.001L317.649 570.364C317.499 570.321 317.313 570.289 317.091 570.268C316.876 570.246 316.683 570.235 316.511 570.235C316.06 570.235 315.63 570.311 315.222 570.461C314.813 570.604 314.452 570.826 314.137 571.127C313.822 571.421 313.575 571.789 313.396 572.233C313.216 572.677 313.127 573.193 313.127 573.78V580H310.592V568.108H312.568L312.912 570.203H313.03C313.267 569.781 313.56 569.394 313.911 569.043C314.262 568.692 314.663 568.413 315.114 568.205C315.573 567.99 316.074 567.883 316.618 567.883ZM322.612 568.108V580H320.088V568.108H322.612ZM321.366 563.554C321.753 563.554 322.086 563.658 322.365 563.865C322.652 564.073 322.795 564.431 322.795 564.939C322.795 565.441 322.652 565.799 322.365 566.014C322.086 566.221 321.753 566.325 321.366 566.325C320.965 566.325 320.625 566.221 320.346 566.014C320.074 565.799 319.938 565.441 319.938 564.939C319.938 564.431 320.074 564.073 320.346 563.865C320.625 563.658 320.965 563.554 321.366 563.554ZM330.97 567.883C332.03 567.883 332.939 568.101 333.698 568.538C334.457 568.975 335.041 569.594 335.449 570.396C335.857 571.199 336.062 572.158 336.062 573.275V574.629H328.123C328.152 575.782 328.46 576.67 329.047 577.293C329.641 577.916 330.472 578.228 331.539 578.228C332.298 578.228 332.979 578.156 333.58 578.013C334.189 577.862 334.815 577.644 335.46 577.357V579.409C334.866 579.688 334.26 579.893 333.645 580.021C333.029 580.15 332.291 580.215 331.432 580.215C330.264 580.215 329.237 579.989 328.349 579.538C327.468 579.08 326.777 578.399 326.275 577.497C325.781 576.595 325.534 575.474 325.534 574.135C325.534 572.803 325.76 571.671 326.211 570.74C326.662 569.809 327.296 569.1 328.112 568.613C328.929 568.126 329.881 567.883 330.97 567.883ZM330.97 569.784C330.175 569.784 329.53 570.042 329.036 570.558C328.549 571.073 328.263 571.829 328.177 572.824H333.591C333.584 572.23 333.483 571.703 333.29 571.245C333.104 570.787 332.817 570.429 332.431 570.171C332.051 569.913 331.564 569.784 330.97 569.784ZM345.106 567.883C346.446 567.883 347.488 568.23 348.232 568.925C348.984 569.612 349.36 570.719 349.36 572.244V580H346.836V572.717C346.836 571.793 346.646 571.102 346.267 570.644C345.887 570.178 345.3 569.945 344.505 569.945C343.352 569.945 342.55 570.3 342.099 571.009C341.655 571.718 341.433 572.745 341.433 574.092V580H338.908V568.108H340.874L341.229 569.72H341.368C341.626 569.304 341.945 568.964 342.324 568.699C342.711 568.427 343.141 568.223 343.613 568.087C344.093 567.951 344.591 567.883 345.106 567.883ZM357.686 580.215C356.561 580.215 355.587 579.996 354.764 579.56C353.94 579.123 353.306 578.453 352.862 577.551C352.418 576.648 352.196 575.503 352.196 574.113C352.196 572.667 352.44 571.485 352.927 570.568C353.414 569.652 354.087 568.975 354.946 568.538C355.813 568.101 356.805 567.883 357.922 567.883C358.631 567.883 359.272 567.954 359.845 568.098C360.425 568.234 360.915 568.402 361.316 568.603L360.564 570.622C360.128 570.443 359.68 570.293 359.222 570.171C358.763 570.049 358.323 569.988 357.9 569.988C357.206 569.988 356.626 570.142 356.16 570.45C355.702 570.758 355.358 571.216 355.129 571.825C354.907 572.434 354.796 573.189 354.796 574.092C354.796 574.965 354.91 575.703 355.14 576.305C355.369 576.899 355.709 577.35 356.16 577.658C356.611 577.959 357.166 578.109 357.825 578.109C358.477 578.109 359.061 578.031 359.576 577.873C360.092 577.715 360.579 577.511 361.037 577.261V579.452C360.586 579.71 360.103 579.9 359.587 580.021C359.071 580.15 358.438 580.215 357.686 580.215ZM368.567 567.883C369.627 567.883 370.537 568.101 371.296 568.538C372.055 568.975 372.639 569.594 373.047 570.396C373.455 571.199 373.659 572.158 373.659 573.275V574.629H365.721C365.749 575.782 366.057 576.67 366.645 577.293C367.239 577.916 368.07 578.228 369.137 578.228C369.896 578.228 370.576 578.156 371.178 578.013C371.786 577.862 372.413 577.644 373.058 577.357V579.409C372.463 579.688 371.858 579.893 371.242 580.021C370.626 580.15 369.889 580.215 369.029 580.215C367.862 580.215 366.834 579.989 365.946 579.538C365.065 579.08 364.374 578.399 363.873 577.497C363.379 576.595 363.132 575.474 363.132 574.135C363.132 572.803 363.357 571.671 363.809 570.74C364.26 569.809 364.894 569.1 365.71 568.613C366.526 568.126 367.479 567.883 368.567 567.883ZM368.567 569.784C367.772 569.784 367.128 570.042 366.634 570.558C366.147 571.073 365.86 571.829 365.774 572.824H371.188C371.181 572.23 371.081 571.703 370.888 571.245C370.701 570.787 370.415 570.429 370.028 570.171C369.649 569.913 369.162 569.784 368.567 569.784ZM386.646 578.174C386.976 578.174 387.302 578.145 387.624 578.088C387.946 578.023 388.24 577.948 388.505 577.862V579.774C388.226 579.896 387.864 580 387.42 580.086C386.976 580.172 386.514 580.215 386.034 580.215C385.361 580.215 384.756 580.104 384.219 579.882C383.682 579.653 383.256 579.262 382.94 578.711C382.625 578.16 382.468 577.397 382.468 576.423V570.031H380.846V568.903L382.586 568.012L383.413 565.466H385.003V568.108H388.408V570.031H385.003V576.391C385.003 576.992 385.153 577.44 385.454 577.733C385.755 578.027 386.152 578.174 386.646 578.174ZM393.446 563.285V567.485C393.446 567.922 393.432 568.348 393.403 568.764C393.382 569.179 393.357 569.501 393.328 569.73H393.468C393.718 569.315 394.026 568.975 394.392 568.71C394.757 568.438 395.165 568.234 395.616 568.098C396.075 567.962 396.562 567.894 397.077 567.894C397.987 567.894 398.76 568.048 399.397 568.355C400.035 568.656 400.522 569.125 400.858 569.763C401.202 570.4 401.374 571.227 401.374 572.244V580H398.85V572.717C398.85 571.793 398.66 571.102 398.28 570.644C397.901 570.178 397.313 569.945 396.519 569.945C395.752 569.945 395.144 570.106 394.692 570.429C394.248 570.744 393.93 571.213 393.736 571.836C393.543 572.452 393.446 573.204 393.446 574.092V580H390.922V563.285H393.446ZM409.646 567.883C410.705 567.883 411.615 568.101 412.374 568.538C413.133 568.975 413.717 569.594 414.125 570.396C414.533 571.199 414.737 572.158 414.737 573.275V574.629H406.799C406.827 575.782 407.135 576.67 407.723 577.293C408.317 577.916 409.148 578.228 410.215 578.228C410.974 578.228 411.654 578.156 412.256 578.013C412.865 577.862 413.491 577.644 414.136 577.357V579.409C413.541 579.688 412.936 579.893 412.32 580.021C411.704 580.15 410.967 580.215 410.107 580.215C408.94 580.215 407.912 579.989 407.024 579.538C406.144 579.08 405.452 578.399 404.951 577.497C404.457 576.595 404.21 575.474 404.21 574.135C404.21 572.803 404.436 571.671 404.887 570.74C405.338 569.809 405.972 569.1 406.788 568.613C407.604 568.126 408.557 567.883 409.646 567.883ZM409.646 569.784C408.851 569.784 408.206 570.042 407.712 570.558C407.225 571.073 406.938 571.829 406.853 572.824H412.267C412.259 572.23 412.159 571.703 411.966 571.245C411.78 570.787 411.493 570.429 411.106 570.171C410.727 569.913 410.24 569.784 409.646 569.784ZM428.09 580.215C426.965 580.215 425.992 579.996 425.168 579.56C424.344 579.123 423.711 578.453 423.267 577.551C422.823 576.648 422.601 575.503 422.601 574.113C422.601 572.667 422.844 571.485 423.331 570.568C423.818 569.652 424.491 568.975 425.351 568.538C426.217 568.101 427.209 567.883 428.326 567.883C429.035 567.883 429.676 567.954 430.249 568.098C430.829 568.234 431.32 568.402 431.721 568.603L430.969 570.622C430.532 570.443 430.084 570.293 429.626 570.171C429.168 570.049 428.727 569.988 428.305 569.988C427.61 569.988 427.03 570.142 426.564 570.45C426.106 570.758 425.762 571.216 425.533 571.825C425.311 572.434 425.2 573.189 425.2 574.092C425.2 574.965 425.315 575.703 425.544 576.305C425.773 576.899 426.113 577.35 426.564 577.658C427.016 577.959 427.571 578.109 428.229 578.109C428.881 578.109 429.465 578.031 429.98 577.873C430.496 577.715 430.983 577.511 431.441 577.261V579.452C430.99 579.71 430.507 579.9 429.991 580.021C429.476 580.15 428.842 580.215 428.09 580.215ZM444.762 574.027C444.762 575.016 444.633 575.893 444.375 576.659C444.117 577.425 443.741 578.074 443.247 578.604C442.753 579.126 442.159 579.527 441.464 579.807C440.769 580.079 439.985 580.215 439.111 580.215C438.295 580.215 437.547 580.079 436.866 579.807C436.186 579.527 435.595 579.126 435.094 578.604C434.6 578.074 434.216 577.425 433.944 576.659C433.672 575.893 433.536 575.016 433.536 574.027C433.536 572.717 433.762 571.607 434.213 570.697C434.671 569.781 435.323 569.082 436.168 568.603C437.013 568.123 438.019 567.883 439.187 567.883C440.282 567.883 441.249 568.123 442.087 568.603C442.925 569.082 443.58 569.781 444.053 570.697C444.525 571.614 444.762 572.724 444.762 574.027ZM436.136 574.027C436.136 574.894 436.24 575.635 436.447 576.251C436.662 576.867 436.992 577.34 437.436 577.669C437.88 577.991 438.452 578.152 439.154 578.152C439.856 578.152 440.429 577.991 440.873 577.669C441.317 577.34 441.643 576.867 441.851 576.251C442.058 575.635 442.162 574.894 442.162 574.027C442.162 573.161 442.058 572.427 441.851 571.825C441.643 571.216 441.317 570.755 440.873 570.439C440.429 570.117 439.853 569.956 439.144 569.956C438.098 569.956 437.335 570.307 436.855 571.009C436.376 571.711 436.136 572.717 436.136 574.027ZM453.86 567.883C455.2 567.883 456.242 568.23 456.986 568.925C457.738 569.612 458.114 570.719 458.114 572.244V580H455.59V572.717C455.59 571.793 455.4 571.102 455.021 570.644C454.641 570.178 454.054 569.945 453.259 569.945C452.106 569.945 451.304 570.3 450.853 571.009C450.409 571.718 450.187 572.745 450.187 574.092V580H447.662V568.108H449.628L449.982 569.72H450.122C450.38 569.304 450.699 568.964 451.078 568.699C451.465 568.427 451.895 568.223 452.367 568.087C452.847 567.951 453.345 567.883 453.86 567.883ZM464.366 580L459.844 568.108H462.519L464.968 575.091C465.125 575.535 465.269 576.015 465.397 576.53C465.526 577.046 465.616 577.479 465.666 577.83H465.752C465.802 577.465 465.899 577.028 466.042 576.52C466.185 576.004 466.332 575.528 466.482 575.091L468.932 568.108H471.596L467.073 580H464.366ZM478.138 567.883C479.198 567.883 480.107 568.101 480.866 568.538C481.625 568.975 482.209 569.594 482.617 570.396C483.025 571.199 483.229 572.158 483.229 573.275V574.629H475.291C475.32 575.782 475.628 576.67 476.215 577.293C476.809 577.916 477.64 578.228 478.707 578.228C479.466 578.228 480.146 578.156 480.748 578.013C481.357 577.862 481.983 577.644 482.628 577.357V579.409C482.034 579.688 481.428 579.893 480.812 580.021C480.197 580.15 479.459 580.215 478.6 580.215C477.432 580.215 476.405 579.989 475.517 579.538C474.636 579.08 473.945 578.399 473.443 577.497C472.949 576.595 472.702 575.474 472.702 574.135C472.702 572.803 472.928 571.671 473.379 570.74C473.83 569.809 474.464 569.1 475.28 568.613C476.097 568.126 477.049 567.883 478.138 567.883ZM478.138 569.784C477.343 569.784 476.698 570.042 476.204 570.558C475.717 571.073 475.431 571.829 475.345 572.824H480.759C480.752 572.23 480.651 571.703 480.458 571.245C480.272 570.787 479.985 570.429 479.599 570.171C479.219 569.913 478.732 569.784 478.138 569.784ZM492.274 567.883C493.614 567.883 494.656 568.23 495.4 568.925C496.152 569.612 496.528 570.719 496.528 572.244V580H494.004V572.717C494.004 571.793 493.814 571.102 493.435 570.644C493.055 570.178 492.468 569.945 491.673 569.945C490.52 569.945 489.718 570.3 489.267 571.009C488.823 571.718 488.601 572.745 488.601 574.092V580H486.076V568.108H488.042L488.396 569.72H488.536C488.794 569.304 489.113 568.964 489.492 568.699C489.879 568.427 490.309 568.223 490.781 568.087C491.261 567.951 491.759 567.883 492.274 567.883ZM502.587 568.108V580H500.062V568.108H502.587ZM501.341 563.554C501.728 563.554 502.061 563.658 502.34 563.865C502.626 564.073 502.77 564.431 502.77 564.939C502.77 565.441 502.626 565.799 502.34 566.014C502.061 566.221 501.728 566.325 501.341 566.325C500.94 566.325 500.6 566.221 500.32 566.014C500.048 565.799 499.912 565.441 499.912 564.939C499.912 564.431 500.048 564.073 500.32 563.865C500.6 563.658 500.94 563.554 501.341 563.554ZM510.944 567.883C512.004 567.883 512.914 568.101 513.673 568.538C514.432 568.975 515.016 569.594 515.424 570.396C515.832 571.199 516.036 572.158 516.036 573.275V574.629H508.098C508.126 575.782 508.434 576.67 509.021 577.293C509.616 577.916 510.447 578.228 511.514 578.228C512.273 578.228 512.953 578.156 513.555 578.013C514.163 577.862 514.79 577.644 515.435 577.357V579.409C514.84 579.688 514.235 579.893 513.619 580.021C513.003 580.15 512.266 580.215 511.406 580.215C510.239 580.215 509.211 579.989 508.323 579.538C507.442 579.08 506.751 578.399 506.25 577.497C505.756 576.595 505.509 575.474 505.509 574.135C505.509 572.803 505.734 571.671 506.186 570.74C506.637 569.809 507.271 569.1 508.087 568.613C508.903 568.126 509.856 567.883 510.944 567.883ZM510.944 569.784C510.149 569.784 509.505 570.042 509.011 570.558C508.524 571.073 508.237 571.829 508.151 572.824H513.565C513.558 572.23 513.458 571.703 513.265 571.245C513.078 570.787 512.792 570.429 512.405 570.171C512.026 569.913 511.539 569.784 510.944 569.784ZM525.081 567.883C526.42 567.883 527.462 568.23 528.207 568.925C528.959 569.612 529.335 570.719 529.335 572.244V580H526.811V572.717C526.811 571.793 526.621 571.102 526.241 570.644C525.862 570.178 525.274 569.945 524.479 569.945C523.326 569.945 522.524 570.3 522.073 571.009C521.629 571.718 521.407 572.745 521.407 574.092V580H518.883V568.108H520.849L521.203 569.72H521.343C521.601 569.304 521.919 568.964 522.299 568.699C522.686 568.427 523.115 568.223 523.588 568.087C524.068 567.951 524.565 567.883 525.081 567.883ZM537.66 580.215C536.536 580.215 535.562 579.996 534.738 579.56C533.915 579.123 533.281 578.453 532.837 577.551C532.393 576.648 532.171 575.503 532.171 574.113C532.171 572.667 532.414 571.485 532.901 570.568C533.388 569.652 534.062 568.975 534.921 568.538C535.787 568.101 536.779 567.883 537.896 567.883C538.605 567.883 539.246 567.954 539.819 568.098C540.399 568.234 540.89 568.402 541.291 568.603L540.539 570.622C540.102 570.443 539.655 570.293 539.196 570.171C538.738 570.049 538.298 569.988 537.875 569.988C537.18 569.988 536.6 570.142 536.135 570.45C535.676 570.758 535.333 571.216 535.104 571.825C534.882 572.434 534.771 573.189 534.771 574.092C534.771 574.965 534.885 575.703 535.114 576.305C535.343 576.899 535.684 577.35 536.135 577.658C536.586 577.959 537.141 578.109 537.8 578.109C538.451 578.109 539.035 578.031 539.551 577.873C540.066 577.715 540.553 577.511 541.012 577.261V579.452C540.561 579.71 540.077 579.9 539.562 580.021C539.046 580.15 538.412 580.215 537.66 580.215ZM548.542 567.883C549.602 567.883 550.511 568.101 551.271 568.538C552.03 568.975 552.613 569.594 553.021 570.396C553.43 571.199 553.634 572.158 553.634 573.275V574.629H545.695C545.724 575.782 546.032 576.67 546.619 577.293C547.214 577.916 548.044 578.228 549.111 578.228C549.87 578.228 550.551 578.156 551.152 578.013C551.761 577.862 552.388 577.644 553.032 577.357V579.409C552.438 579.688 551.833 579.893 551.217 580.021C550.601 580.15 549.863 580.215 549.004 580.215C547.837 580.215 546.809 579.989 545.921 579.538C545.04 579.08 544.349 578.399 543.848 577.497C543.354 576.595 543.106 575.474 543.106 574.135C543.106 572.803 543.332 571.671 543.783 570.74C544.234 569.809 544.868 569.1 545.685 568.613C546.501 568.126 547.453 567.883 548.542 567.883ZM548.542 569.784C547.747 569.784 547.103 570.042 546.608 570.558C546.121 571.073 545.835 571.829 545.749 572.824H551.163C551.156 572.23 551.056 571.703 550.862 571.245C550.676 570.787 550.39 570.429 550.003 570.171C549.623 569.913 549.136 569.784 548.542 569.784Z" fill="white"/>
<defs>
<clipPath id="clip0_2808_3509">
<rect width="440" height="300" fill="white" transform="translate(140 232)"/>
</clipPath>
</defs>
</svg>
