<svg width="192" height="75" viewBox="0 0 192 75" fill="none" xmlns="http://www.w3.org/2000/svg">
<path d="M164.738 29.0236C156.596 25.2766 148.563 25.9266 142.243 29.3423V0.214844H132.116C130.793 0.214844 129.723 1.28397 129.723 2.60407V48.1726C129.723 48.278 129.748 48.3783 129.791 48.4662C129.745 49.0735 129.723 49.6859 129.723 50.3033C129.723 63.4566 140.403 74.1203 153.577 74.1203C170.402 74.1203 183.156 56.7381 174.808 38.9846C172.742 34.5876 169.155 31.0565 164.738 29.0236ZM159.897 58.4523C149.045 64.6161 137.94 53.5257 144.111 42.6914C144.832 41.4265 145.886 40.3699 147.153 39.6471C158.014 33.4381 169.165 44.5711 162.946 55.4155C162.222 56.6804 161.166 57.732 159.897 58.4523Z" fill="#005BAA"/>
<path d="M191.396 74.1213H182.082C180.65 74.1213 179.488 72.894 179.488 71.3807V38.2803L191.396 27.6543V74.1213Z" fill="#005BAA"/>
<path d="M179.488 37.1338V29.0426C179.488 27.6221 180.838 26.4727 182.505 26.4727H191.396" fill="#005BAA"/>
<path d="M126.727 50.3423C126.579 63.5007 115.848 74.1217 102.634 74.1217C89.3239 74.1217 78.5352 63.3501 78.5352 50.0638C78.5352 36.8578 89.1881 26.1389 102.382 26.0059V38.4238C95.6533 38.4916 90.2213 43.6565 90.2213 50.0161C90.2213 56.4208 95.7262 61.6134 102.518 61.6134C109.195 61.6134 114.629 56.5965 114.813 50.3423H126.727Z" fill="#005BAA"/>
<path d="M126.72 49.4695H114.803C114.629 49.4695 114.803 49.4695 114.629 49.4695V38.4194H103.574V26.0215C116.248 26.5059 126.414 36.768 126.72 49.4695Z" fill="#00A651"/>
<path d="M76.3761 47.7822V74.1214H66.158C64.8233 74.1214 63.7399 73.0397 63.7399 71.7071V67.0365C63.7399 66.9964 63.7399 66.9562 63.7424 66.9161V66.9085C63.7499 61.839 63.7575 56.7694 63.7575 51.6998C63.765 48.6028 63.4885 45.5235 61.4172 43.0539C59.6753 40.9759 57.056 39.7286 54.3337 39.7286C48.6427 39.7286 45.1814 44.4945 45.0205 49.7623C44.9577 51.8328 44.9275 53.9058 44.9174 55.9788C44.9074 57.5097 44.9099 59.0457 44.9174 60.5766V71.5665C44.9174 72.8063 44.0351 73.8378 42.8587 74.0737C42.7808 74.0913 42.7029 74.1013 42.6225 74.1088C42.5797 74.1139 42.537 74.1139 42.4917 74.1164C42.4566 74.1214 42.4188 74.1214 42.3837 74.1214H34.8753C33.445 74.1214 32.2812 72.9544 32.2812 71.5264C32.2812 67.8748 32.3264 64.2257 32.3415 60.5766C32.3491 59.0457 32.3516 57.5097 32.3415 55.9788C32.3315 53.9058 32.3038 51.8328 32.2384 49.7623C32.0826 44.4945 28.6162 39.7286 22.9253 39.7286C20.2055 39.7286 17.5862 40.9759 15.8417 43.0539C13.7704 45.5235 13.4939 48.6028 13.5015 51.6998C13.5015 59.1762 13.5216 66.6475 13.5216 74.1214H3.00687C1.83801 74.1214 0.882812 73.1677 0.882812 72.0007V47.7822C0.943141 45.8347 1.26238 43.9474 1.81036 42.1554C4.5553 33.1231 13.0113 26.4824 22.8951 26.4824C29.031 26.4824 34.6189 29.0448 38.6282 33.1482C42.6401 29.0448 48.228 26.4824 54.3664 26.4824C64.2476 26.4824 72.7062 33.1231 75.4511 42.1554C75.9966 43.9474 76.3158 45.8347 76.3761 47.7822Z" fill="#005BAA"/>
</svg>
